<?xml version="1.0" encoding="UTF-8" standalone="no"?>
<svg
   xmlns:dc="http://purl.org/dc/elements/1.1/"
   xmlns:cc="http://creativecommons.org/ns#"
   xmlns:rdf="http://www.w3.org/1999/02/22-rdf-syntax-ns#"
   xmlns:svg="http://www.w3.org/2000/svg"
   xmlns="http://www.w3.org/2000/svg"
   xmlns:sodipodi="http://sodipodi.sourceforge.net/DTD/sodipodi-0.dtd"
   xmlns:inkscape="http://www.inkscape.org/namespaces/inkscape"
   version="1.1"
   id="Layer_1"
   x="0px"
   y="0px"
   viewBox="0 0 1675 182"
   xml:space="preserve"
   sodipodi:docname="Desktop-Logos.svg"
   width="1675"
   height="182"
   inkscape:version="1.0.2 (e86c870879, 2021-01-15, custom)"><metadata
   id="metadata93"><rdf:RDF><cc:Work
       rdf:about=""><dc:format>image/svg+xml</dc:format><dc:type
         rdf:resource="http://purl.org/dc/dcmitype/StillImage" /><dc:title></dc:title></cc:Work></rdf:RDF></metadata><defs
   id="defs91" /><sodipodi:namedview
   pagecolor="#ffffff"
   bordercolor="#666666"
   borderopacity="1"
   objecttolerance="10"
   gridtolerance="10"
   guidetolerance="10"
   inkscape:pageopacity="0"
   inkscape:pageshadow="2"
   inkscape:window-width="1920"
   inkscape:window-height="1001"
   id="namedview89"
   showgrid="false"
   inkscape:zoom="0.86814992"
   inkscape:cx="1018.5582"
   inkscape:cy="-39.35475"
   inkscape:window-x="0"
   inkscape:window-y="0"
   inkscape:window-maximized="1"
   inkscape:current-layer="Layer_1" />
<style
   type="text/css"
   id="style2">
	.st0{fill:#FFFFFF;}
	.st1{fill-rule:evenodd;clip-rule:evenodd;fill:#FFFFFF;}
</style>



<g
   id="g62"
   style="fill:#f4ffff;fill-opacity:1"
   transform="translate(-906)">
	<path
   class="st0"
   d="m 2101.3,95.1 c 0,22.8 -17.8,39.6 -39.6,39.6 -21.7,0 -39.6,-16.8 -39.6,-39.6 0,-23 17.8,-39.6 39.6,-39.6 21.8,0 39.6,16.6 39.6,39.6 z m -17.3,0 c 0,-14.3 -10.3,-23.9 -22.3,-23.9 -11.9,0 -22.3,9.8 -22.3,23.9 0,14.1 10.3,23.9 22.3,23.9 12,0 22.3,-9.8 22.3,-23.9 z"
   id="path50"
   style="fill:#f4ffff;fill-opacity:1" />
	<path
   class="st0"
   d="m 2186.8,95.1 c 0,22.8 -17.8,39.6 -39.6,39.6 -21.7,0 -39.6,-16.8 -39.6,-39.6 0,-22.8 17.8,-39.6 39.6,-39.6 21.8,0 39.6,16.6 39.6,39.6 z m -17.4,0 c 0,-14.3 -10.3,-23.9 -22.3,-23.9 -11.9,0 -22.3,9.8 -22.3,23.9 0,14.1 10.3,23.9 22.3,23.9 11.9,0 22.3,-9.8 22.3,-23.9 z"
   id="path52"
   style="fill:#f4ffff;fill-opacity:1" />
	<path
   class="st0"
   d="m 2268.8,58 v 71 c 0,29.2 -17.3,41.2 -37.6,41.2 -19.2,0 -30.7,-12.8 -35.1,-23.3 l 15.1,-6.2 c 2.7,6.4 9.3,14.1 20,14.1 13,0 21,-8 21,-23.2 v -5.7 h -0.5 c -3.9,4.8 -11.4,8.9 -20.9,8.9 -19.8,0 -37.8,-17.3 -37.8,-39.4 0,-22.3 18.2,-39.7 37.8,-39.7 9.4,0 16.9,4.3 20.9,8.9 h 0.5 V 58 Z m -15.3,37.3 c 0,-13.9 -9.3,-24.1 -21,-24.1 -11.9,0 -22.1,10.2 -22.1,24.1 0,13.7 10,23.9 22.1,23.9 11.7,0 21,-10.2 21,-23.9 z"
   id="path54"
   style="fill:#f4ffff;fill-opacity:1" />
	<path
   class="st0"
   d="M 2295.9,16.3 V 132.1 H 2279 V 16.3 Z"
   id="path56"
   style="fill:#f4ffff;fill-opacity:1" />
	<path
   class="st0"
   d="m 2362,108.1 13.5,8.9 c -4.3,6.4 -14.8,17.5 -33,17.5 -22.5,0 -39.2,-17.3 -39.2,-39.6 0,-23.5 16.9,-39.6 37.2,-39.6 20.5,0 30.5,16.4 33.9,25.1 l 1.8,4.5 -52.9,22.1 c 4.1,8 10.3,11.9 19.2,11.9 8.8,0.1 14.9,-4.2 19.5,-10.8 z m -41.5,-14.2 35.3,-14.6 c -2,-5 -7.8,-8.4 -14.6,-8.4 -8.9,0 -21.2,7.8 -20.7,23 z"
   id="path58"
   style="fill:#f4ffff;fill-opacity:1" />
	<path
   class="st0"
   d="M 1957.8,84.8 V 68 h 56.5 c 0.5,2.9 0.9,6.4 0.9,10.2 0,12.7 -3.4,28.2 -14.6,39.2 -10.7,11.2 -24.6,17.3 -42.8,17.3 -33.7,0 -62.2,-27.6 -62.2,-61.5 0,-33.9 28.5,-61.3 62.2,-61.3 18.7,0 32.1,7.3 42.1,16.9 l -11.8,11.8 c -7.1,-6.8 -16.9,-11.9 -30.3,-11.9 -24.8,0 -44,20 -44,44.6 0,24.6 19.2,44.6 44,44.6 16,0 25.1,-6.4 31,-12.3 4.8,-4.8 7.8,-11.6 9.1,-20.9 z"
   id="path60"
   style="fill:#f4ffff;fill-opacity:1" />
</g>

<path
   class="st0"
   d="m 1661.9,137.8 c 8.5,-14.1 13,-30.3 13,-46.8 0,-50.3 -40.7,-91 -91,-91 -50.3,0 -91,40.7 -91,91 0,16.5 4.5,32.7 13,46.8 l -0.3,0.3 0.4,-0.2 c 15.9,26.4 44.9,44.1 78,44.1 33.1,0 62.1,-17.7 78,-44.1 l 0.4,0.2 z m 1.8,-46.8 c 0,13.9 -3.6,27.6 -10.6,39.7 l -56.3,-45.3 -11.6,-74.2 c 43.5,0.8 78.5,36.2 78.5,79.8 z M 1504,91 c 0,-43.6 35,-79 78.4,-79.8 l -11.6,74.2 -56.3,45.3 C 1507.7,118.6 1504,104.9 1504,91 Z m 79.9,79.8 c -28.3,0 -53.2,-14.8 -67.4,-37 l 67.4,-26.1 67.4,26.1 c -14.3,22.2 -39.1,37 -67.4,37 z"
   id="path70"
   style="fill:#f4ffff;fill-opacity:1" />
<g
   id="g74"
   style="fill:#f4ffff;fill-opacity:1"
   transform="translate(-741.53146,0.79183413)">
	<path
   class="st0"
   d="m 1192.9,160.1 c -8.8,1.5 -17.8,2 -27.1,3.3 l -28.3,-83.1 v 86.6 c -8.8,0.9 -16.9,2.2 -25.3,3.4 V 11.7 h 23.6 l 32.2,90 v -90 h 24.9 z m 48.8,-90.3 c 9.6,0 24.3,-0.5 33.1,-0.5 v 24.8 c -11,0 -23.9,0 -33.1,0.5 v 36.9 c 14.6,-0.9 29.1,-2.2 43.9,-2.6 v 23.9 l -68.6,5.4 V 11.7 h 68.6 v 24.8 h -43.9 c 0,-0.1 0,33.3 0,33.3 z M 1377.8,36.4 H 1352 v 114 c -8.4,0 -16.7,0 -24.8,0.3 V 36.4 h -25.7 V 11.7 h 76.3 z m 40.3,31.7 h 33.9 v 24.8 h -33.9 v 56.2 h -24.3 V 11.7 h 69.3 v 24.8 h -44.9 v 31.6 z m 85.2,59.3 c 14.1,0.3 28.4,1.4 42.1,2.2 v 24.5 c -22.1,-1.4 -44.3,-2.8 -67,-3.3 V 11.7 h 24.8 z m 63,28.4 c 7.9,0.5 16.3,0.9 24.3,1.8 V 11.7 h -24.3 z m 133,-144.1 -31.5,75.5 31.5,83.2 c -9.3,-1.3 -18.6,-2.9 -27.9,-4.5 l -17.8,-45.9 -18.1,42.1 c -9,-1.5 -17.7,-2 -26.7,-3.3 l 31.9,-72.6 -28.8,-74.5 h 26.7 l 16.3,41.7 17.3,-41.7 z"
   id="path72"
   style="fill:#f4ffff;fill-opacity:1" />
</g>
<g
   id="g86"
   style="fill:#f4ffff;fill-opacity:1">
	<polygon
   class="st1"
   points="119.6,0.3 141.9,0.3 106.5,94.8 82.4,94.8 85.1,53 69.5,94.8 47.2,94.8 82.6,0.3 106.4,0.3 103.6,42.6 "
   id="polygon76"
   style="fill:#f4ffff;fill-opacity:1" />
	<polygon
   class="st1"
   points="109.3,94.8 144.8,0.3 167.1,0.3 131.7,94.8 "
   id="polygon78"
   style="fill:#f4ffff;fill-opacity:1" />
	<path
   class="st1"
   d="M 44.6,62.2 C 13.4,98.8 -16,147.6 10,170 c 25.2,21.8 56.7,8.9 78.1,0.3 21.5,-8.6 258.8,-111.6 258.8,-111.6 2.3,-1.1 1.9,-2.6 -1,-1.9 -1.1,0.3 -258.3,70 -258.3,70 C 54.9,136 17.7,116 44.6,62.2 Z"
   id="path80"
   style="fill:#f4ffff;fill-opacity:1" />
	<path
   class="st1"
   d="m 282.8,0 c -2.8,0 -4.9,1.9 -4.9,4.8 0,2.9 2.2,4.8 4.9,4.8 2.8,0 4.9,-1.9 4.9,-4.8 C 287.8,1.9 285.6,0 282.8,0 Z m 0,8.2 c -2,0 -3.4,-1.4 -3.4,-3.4 0,-2 1.4,-3.4 3.4,-3.4 2,0 3.4,1.5 3.4,3.4 0.1,1.9 -1.4,3.4 -3.4,3.4 z"
   id="path82"
   style="fill:#f4ffff;fill-opacity:1" />
	<path
   class="st1"
   d="m 283.7,5.1 c 0.7,0 1.2,-0.4 1.2,-1.3 0,-1.2 -0.8,-1.6 -2.2,-1.6 h -1.9 v 5.1 h 1.3 V 5.2 h 0.2 l 1.2,2.2 h 1.5 z m -0.9,-0.8 h -0.7 V 3.1 h 0.6 c 0.4,0 0.8,0 0.8,0.5 0.1,0.5 -0.2,0.7 -0.7,0.7 z M 268.1,16 274.1,0.3 H 206 L 182.6,28.6 193.4,0.3 H 170.8 L 135.6,94.8 H 158 l 15,-39.5 1,39.5 68.5,-0.1 6.5,-18.2 h -26 l 8.6,-22.9 H 253 L 259.6,36 h -21.5 l 7.4,-19.9 z M 196.2,88.4 194.8,39.2 228.6,2.1 Z"
   id="path84"
   style="fill:#f4ffff;fill-opacity:1" />
</g>
</svg>
